# AST/ASF file generated using VICON BodyLanguage
# -----------------------------------------------
:version 1.10
:name VICON
:units
  mass 1.0
  length 0.45
  angle deg
:documentation
   .ast/.asf automatically generated from VICON data using
   VICON BodyBuilder and BodyLanguage model FoxedUp or BRILLIANT.MOD
:root
   order TX TY TZ RX RY RZ
   axis XYZ
   position 0 0 0  
   orientation 0 0 0 
:bonedata
  begin
     id 1 
     name lhipjoint
     direction 0.624716 -0.669793 0.401383 
     length 2.38238 
     axis 0 0 0  XYZ
  end
  begin
     id 2 
     name lfemur
     direction 0.34202 -0.939693 0  
     length 6.4574  
     axis 0 0 20  XYZ
    dof rx ry rz
    limits (-160.0 20.0)
           (-70.0 70.0)
           (-60.0 70.0)
  end
  begin
     id 3 
     name ltibia
     direction 0.34202 -0.939693 0   
     length 7.68739   
     axis 0 0 20   XYZ
    dof rx
    limits (-10.0 170.0)
  end
  begin
     id 4 
     name lfoot
     direction 0.0681309 -0.187188 0.979959   
     length 2.46615   
     axis -90 7.62852e-016 20   XYZ
    dof rx rz
    limits (-45.0 90.0)
           (-70.0 20.0)
  end
  begin
     id 5 
     name ltoes
     direction 1.53566e-011 -4.21819e-011 1   
     length 1.2376   
     axis -90 7.62852e-016 20   XYZ
    dof rx
    limits (-90.0 20.0)
  end
  begin
     id 6 
     name rhipjoint
     direction -0.644473 -0.655875 0.393043   
     length 2.43293  
     axis 0 0 0  XYZ 
  end
  begin
     id 7 
     name rfemur
     direction -0.34202 -0.939693 0   
     length 6.7025   
     axis 0 0 -20   XYZ
    dof rx ry rz
    limits (-160.0 20.0)
           (-70.0 70.0)
           (-70.0 60.0)
  end
  begin
     id 8 
     name rtibia
     direction -0.34202 -0.939693 0   
     length 7.80547   
     axis 0 0 -20   XYZ
    dof rx
    limits (-10.0 170.0)
 end
 begin
     id 9 
     name rfoot
     direction -0.0756734 -0.207911 0.975216   
     length 2.40315  
     axis -90 -7.62852e-016 -20   XYZ
    dof rx rz
    limits (-45.0 90.0)
           (-20.0 70.0)
  end
  begin
     id 10 
     name rtoes
     direction -1.5353e-011 -4.21879e-011 1   
     length 1.20477   
     axis -90 -7.62852e-016 -20   XYZ
    dof rx
    limits (-90.0 20.0)
  end
  begin
     id 11 
     name lowerback
     direction 0.0160353 0.987463 -0.157037   
     length 2.18572   
     axis 0 0 0   XYZ
    dof rx ry rz
    limits (-20.0 45.0)
           (-30.0 30.0)
           (-30.0 30.0)
  end
  begin
     id 12 
     name upperback
     direction -0.00499661 0.999756 0.0215076   
     length 2.18016   
     axis 0 0 0   XYZ
    dof rx ry rz
    limits (-20.0 45.0)
           (-30.0 30.0)
           (-30.0 30.0)
  end
  begin
     id 13 
     name thorax
     direction -0.00921346 0.995333 0.0960619   
     length 2.24923   
     axis 0 0 0   XYZ
    dof rx ry rz
    limits (-20.0 45.0)
           (-30.0 30.0)
           (-30.0 30.0)
  end
  begin
     id 14 
     name lowerneck
     direction 0.0274184 0.991181 0.12965   
     length 1.70911   
     axis 0 0 0   XYZ
    dof rx ry rz
    limits (-20.0 45.0)
           (-30.0 30.0)
           (-30.0 30.0)
  end
  begin
     id 15 
     name upperneck
     direction 0.0015627 0.999959 -0.00893559   
     length 1.69312   
     axis 0 0 0   XYZ
    dof rx ry rz
    limits (-20.0 45.0)
           (-30.0 30.0)
           (-30.0 30.0)
  end
  begin
     id 16
     name head
     direction -0.00230242 0.999856 -0.0168327  
     length 1.80241  
     axis 0 0 0   XYZ
    dof rx ry rz
    limits (-20.0 45.0)
           (-30.0 30.0)
           (-30.0 30.0)
  end
  begin
     id 17 
     name lclavicle
     direction 0.955523 0.290741 -0.0494489  
     length 3.84275  
     axis 0 0 0   XYZ
    dof ry rz
    limits (-20.0 10.0)
           (0.0 20.0)
  end
  begin
     id 18 
     name lhumerus
     direction 1 -4.48967e-011 -3.18382e-028   
     length 5.17714   
     axis 180 -30 -90   XYZ
    dof rx ry rz
    limits (-60.0 90.0)
           (-90.0 90.0)
           (-90.0 90.0)
  end
  begin
     id 19
     name lradius
     direction 1 -4.48968e-011 -2.22911e-027   
     length 3.43679   
     axis 180 -30 -90   XYZ
    dof rx
    limits (-10.0 170.0)
  end
  begin
     id 20
     name lwrist
     direction 1 -4.48951e-011 -6.32245e-027   
     length 1.7184   
     axis 3.57107e-015 90 90   XYZ
    dof ry
    limits (-180.0 0.0)
 end
  begin
     id 21 
     name lhand
     direction 1 -4.48924e-011 -1.26431e-026   
     length 0.573117   
     axis 8.06912e-015 90 90   XYZ
    dof rx rz
    limits (-90.0 90.0)
           (-45.0 45.0)
  end
  begin
     id 22 
     name lfingers
     direction 1 -4.49001e-011 -2.52965e-026   
     length 0.462062   
     axis 1.61381e-014 90 90   XYZ
    dof rx
    limits (0.0 90.0)
  end
  begin
     id 23
     name lthumb
     direction 0.707107 -6.35008e-011 0.707107   
     length 0.663431   
     axis -90 45 -1.62303e-014   XYZ
    dof rx rz
    limits (-45.0 45.0)
           (-45.0 45.0)
  end
  begin
     id 24 
     name rclavicle
     direction -0.963917 0.256881 -0.0698287   
     length 3.73057  
     axis 0 0 0   XYZ 
    dof ry rz
    limits (-10.0 20.0)
           (-20.0 0.0)
  end
  begin
     id 25 
     name rhumerus
     direction -1 -4.48962e-011 -2.73982e-027  
     length 5.23908   
     axis 180 30 90   XYZ
    dof rx ry rz
    limits (-90.0 60.0)
           (-90.0 90.0)
           (-90.0 90.0)
  end
  begin
     id 26 
     name rradius
     direction -1 -4.48968e-011 -4.33218e-027   
     length 3.46485   
     axis 180 30 90   XYZ
    dof rx
    limits (-10.0 170.0)
  end
  begin
     id 27 
     name rwrist
     direction -1 -4.48989e-011 -6.32372e-027   
     length 1.73243   
     axis 3.57107e-015 -90 -90   XYZ
    dof ry
    limits (-180.0 0.0)
  end
  begin
     id 28
     name rhand
     direction -1 -4.48948e-011 -1.26448e-026   
     length 0.608752   
     axis 8.06912e-015 -90 -90   XYZ
    dof rx rz
    limits (-90.0 90.0)
           (-45.0 45.0)
  end
  begin
     id 29
     name rfingers
     direction -1 -4.48962e-011 -2.52913e-026   
     length 0.490792   
     axis 1.61381e-014 -90 -90   XYZ
    dof rx
    limits (0.0 90.0)
  end
  begin
     id 30
     name rthumb
     direction -0.707107 -6.34878e-011 0.707107   
     length 0.704682   
     axis -90 -45 1.62303e-014   XYZ
    dof rx rz
    limits (-45.0 45.0)
           (-45.0 45.0)
  end
:hierarchy
  begin
    root lhipjoint rhipjoint lowerback
    lhipjoint lfemur
    lfemur ltibia
    ltibia lfoot
    lfoot ltoes
    rhipjoint rfemur
    rfemur rtibia
    rtibia rfoot
    rfoot rtoes
    lowerback upperback
    upperback thorax
    thorax lowerneck lclavicle rclavicle
    lowerneck upperneck
    upperneck head
    lclavicle lhumerus
    lhumerus lradius
    lradius lwrist
    lwrist lhand lthumb
    lhand lfingers
    rclavicle rhumerus
    rhumerus rradius
    rradius rwrist
    rwrist rhand rthumb
    rhand rfingers
  end

#!OML:ASF G:\JayActor3\Patient Classification 1\Patient 1\Session 6\male.ASF
:FULLY-SPECIFIED
:DEGREES
440
root 33.2079 14.7482 6.93792 202.232 -50.7136 -182.056
lowerback 38.0232 2.20782 4.15308
upperback 18.5804 -0.0405084 -0.240576
thorax 1.84041 -1.14435 -2.44047
lowerneck 4.5466 0.260437 2.60599
upperneck -27.9577 0.121788 1.88249
head -9.54709 -1.06556 0.303459
rclavicle 8.18993e-014 -6.52014e-014
rhumerus -8.75386 6.27701 -76.105
rradius 61.5718
rwrist -10.6527
rhand -24.9036 -9.0388
rfingers 7.12502
rthumb 1.60465 -39.0125
lclavicle 8.18993e-014 -6.52014e-014
lhumerus 11.0618 -10.4234 54.8005
lradius 72.8587
lwrist 32.3722
lhand -20.135 10.7432
lfingers 7.12502
lthumb 6.20951 40.6322
rfemur -60.1713 -5.82371 21.0078
rtibia 71.1182
rfoot -28.8627 -13.9272
rtoes -6.84867
lfemur -63.3534 14.6934 -32.5666
ltibia 59.9758
lfoot -18.7548 6.22109
ltoes -0.977929
441
root 33.1671 14.7538 6.91992 202.221 -50.756 -181.923
lowerback 37.9138 2.22003 4.12962
upperback 18.5649 -0.0227927 -0.277323
thorax 1.8565 -1.12972 -2.47337
lowerneck 4.5114 0.250197 2.63899
upperneck -28.0047 0.0960977 1.84778
head -9.55746 -1.08126 0.288956
rclavicle 5.00937e-014 2.97183e-014
rhumerus -8.78642 6.22799 -76.1715
rradius 61.4317
rwrist -10.5668
rhand -24.8973 -9.05246
rfingers 7.12502
rthumb 1.61075 -39.0261
lclavicle 5.00937e-014 2.97183e-014
lhumerus 11.2194 -10.6689 54.7639
lradius 72.7554
lwrist 32.5752
lhand -20.0765 10.8069
lfingers 7.12502
lthumb 6.26601 40.6942
rfemur -60.2199 -5.7919 21.0545
rtibia 71.3215
rfoot -28.7461 -14.0515
rtoes -7.34504
lfemur -63.28 14.6765 -32.4845
ltibia 60.0155
lfoot -18.9175 6.21719
ltoes -1.04687
442
root 33.1269 14.7598 6.90212 202.221 -50.794 -181.803
lowerback 37.8086 2.23141 4.09958
upperback 18.5459 -0.00728071 -0.317508
thorax 1.86704 -1.11638 -2.50558
lowerneck 4.46846 0.241812 2.67514
upperneck -28.0743 0.06748 1.79882
head -9.57458 -1.09892 0.269641
rclavicle 8.82604e-014 -9.92929e-014
rhumerus -8.8332 6.19651 -76.2334
rradius 61.3335
rwrist -10.469
rhand -24.855 -9.06144
rfingers 7.12502
rthumb 1.65157 -39.0348
lclavicle 8.82604e-014 -9.92929e-014
lhumerus 11.3713 -10.9524 54.6768
lradius 72.6872
lwrist 32.8071
lhand -19.9379 10.8529
lfingers 7.12502
lthumb 6.39979 40.7362
rfemur -60.3293 -5.76363 21.0981
rtibia 71.5941
rfoot -28.5538 -14.1825
rtoes -7.83703
lfemur -63.2016 14.6368 -32.4006
ltibia 60.0405
lfoot -19.0664 6.24012
ltoes -1.13695
443
root 33.0871 14.7664 6.88456 202.237 -50.8218 -181.706
lowerback 37.7168 2.24208 4.06064
upperback 18.5228 0.00500364 -0.365359
thorax 1.86848 -1.10498 -2.53989
lowerneck 4.41619 0.23505 2.71028
upperneck -28.1658 0.0355101 1.73823
head -9.59783 -1.11858 0.247153
rclavicle 4.29375e-014 -4.56211e-014
rhumerus -8.89869 6.18022 -76.2908
rradius 61.287
rwrist -10.3725
rhand -24.7743 -9.05338
rfingers 7.12502
rthumb 1.72951 -39.0261
lclavicle 4.29375e-014 -4.56211e-014
lhumerus 11.5296 -11.2718 54.5283
lradius 72.647
lwrist 33.0473
lhand -19.7013 10.8913
lfingers 7.12502
lthumb 6.62819 40.7675
rfemur -60.5044 -5.74448 21.1323
rtibia 71.9449
rfoot -28.2736 -14.3196
rtoes -8.29137
lfemur -63.1093 14.5768 -32.3228
ltibia 60.0476
lfoot -19.2069 6.28946
ltoes -1.22228
444
root 33.0476 14.7735 6.86729 202.269 -50.836 -181.633
lowerback 37.6426 2.25271 4.00795
upperback 18.4955 0.0130747 -0.417276
thorax 1.85902 -1.09687 -2.56965
lowerneck 4.3552 0.229236 2.72417
upperneck -28.2775 -0.000943221 1.67653
head -9.62673 -1.13969 0.228721
rclavicle -3.57812e-014 -8.02096e-014
rhumerus -8.97807 6.18447 -76.336
rradius 61.2929
rwrist -10.2956
rhand -24.6545 -9.03075
rfingers 7.12502
rthumb 1.84521 -39.0025
lclavicle -3.57812e-014 -8.02096e-014
lhumerus 11.6968 -11.6082 54.3262
lradius 72.628
lwrist 33.2588
lhand -19.34 10.9088
lfingers 7.12502
lthumb 6.97694 40.7738
rfemur -60.7502 -5.73475 21.1574
rtibia 72.3766
rfoot -27.8955 -14.4656
rtoes -8.67446
lfemur -63.0011 14.5021 -32.2539
ltibia 60.0351
lfoot -19.3395 6.36658
ltoes -1.3185
445
root 33.0084 14.7817 6.8503 202.311 -50.832 -181.581
lowerback 37.588 2.2636 3.94538
upperback 18.4648 0.0178655 -0.476093
thorax 1.83925 -1.09124 -2.60014
lowerneck 4.29031 0.224484 2.71156
upperneck -28.408 -0.0396074 1.6225
head -9.66172 -1.16135 0.218092
rclavicle -1.26825e-013 8.20981e-014
rhumerus -9.06948 6.20407 -76.3721
rradius 61.3497
rwrist -10.2496
rhand -24.5096 -8.98589
rfingers 7.12502
rthumb 1.98522 -38.9564
lclavicle -1.26825e-013 8.20981e-014
lhumerus 11.8903 -11.9518 54.0641
lradius 72.6141
lwrist 33.404
lhand -18.8222 10.9153
lfingers 7.12502
lthumb 7.4768 40.7632
rfemur -61.0614 -5.73144 21.1731
rtibia 72.885
rfoot -27.4273 -14.6095
rtoes -8.90449
lfemur -62.8716 14.4196 -32.1928
ltibia 60.0021
lfoot -19.4647 6.47334
ltoes -1.45721
446
root 32.9695 14.7908 6.83361 202.359 -50.8076 -181.542
lowerback 37.555 2.27648 3.87387
upperback 18.4328 0.0209121 -0.540245
thorax 1.8108 -1.0876 -2.63071
lowerneck 4.21917 0.219747 2.68042
upperneck -28.5518 -0.0817236 1.57267
head -9.70045 -1.18432 0.212712
rclavicle -1.19271e-015 8.71671e-014
rhumerus -9.16469 6.24117 -76.3957
rradius 61.4509
rwrist -10.2402
rhand -24.357 -8.94706
rfingers 7.12502
rthumb 2.13261 -38.9161
lclavicle -1.19271e-015 8.71671e-014
lhumerus 12.1168 -12.2822 53.7574
lradius 72.5954
lwrist 33.4296
lhand -18.155 10.9157
lfingers 7.12502
lthumb 8.12076 40.7397
rfemur -61.4346 -5.73009 21.1826
rtibia 73.4621
rfoot -26.8668 -14.7601
rtoes -8.94131
lfemur -62.7219 14.3384 -32.1378
ltibia 59.9515
lfoot -19.5745 6.61215
ltoes -1.72738
447
root 32.931 14.8005 6.8172 202.402 -50.7586 -181.508
lowerback 37.5418 2.29288 3.7949
upperback 18.4011 0.0237489 -0.609074
thorax 1.77643 -1.08528 -2.662
lowerneck 4.15385 0.212153 2.62501
upperneck -28.711 -0.128591 1.53726
head -9.74594 -1.20952 0.217351
rclavicle 9.14409e-015 -2.90226e-014
rhumerus -9.25325 6.29894 -76.4065
rradius 61.5828
rwrist -10.2734
rhand -24.2174 -8.91423
rfingers 7.12502
rthumb 2.26742 -38.8819
lclavicle 9.14409e-015 -2.90226e-014
lhumerus 12.3805 -12.5821 53.4139
lradius 72.5635
lwrist 33.3039
lhand -17.3343 10.9305
lfingers 7.12502
lthumb 8.91271 40.7222
rfemur -61.8622 -5.71937 21.187
rtibia 74.097
rfoot -26.2242 -14.9224
rtoes -8.74011
lfemur -62.5558 14.2709 -32.0872
ltibia 59.8885
lfoot -19.6714 6.77199
ltoes -2.08528
448
root 32.8929 14.8107 6.801 202.436 -50.687 -181.476
lowerback 37.5459 2.31269 3.71259
upperback 18.3721 0.0269168 -0.684183
thorax 1.73948 -1.0836 -2.69811
lowerneck 4.09609 0.205708 2.55594
upperneck -28.8771 -0.174031 1.5084
head -9.79552 -1.2336 0.226698
rclavicle 4.77083e-015 1.03368e-014
rhumerus -9.32757 6.37079 -76.4091
rradius 61.7326
rwrist -10.3438
rhand -24.0985 -8.89431
rfingers 7.12502
rthumb 2.38222 -38.8608
lclavicle 4.77083e-015 1.03368e-014
lhumerus 12.6842 -12.8417 53.0386
lradius 72.5137
lwrist 33.0216
lhand -16.4135 10.9284
lfingers 7.12502
lthumb 9.80123 40.6803
rfemur -62.3356 -5.69632 21.1867
rtibia 74.7773
rfoot -25.5138 -15.0889
rtoes -8.25058
lfemur -62.3787 14.2244 -32.041
ltibia 59.8194
lfoot -19.7543 6.94091
ltoes -2.52867
